<svg width="500" height="500" viewBox="0 0 500 500" fill="none" xmlns="http://www.w3.org/2000/svg">
<path d="M479.067 438.356L375.411 334.699C400.607 301.058 415.53 259.278 415.53 214.015C415.53 102.722 325.308 12.5 214.015 12.5C102.722 12.5 12.5 102.722 12.5 214.015C12.5 325.308 102.722 415.53 214.015 415.53C259.279 415.53 301.059 400.605 334.699 375.411L438.356 479.068C449.598 490.311 467.826 490.311 479.067 479.068C490.311 467.826 490.311 449.598 479.067 438.356ZM214.015 357.954C134.52 357.954 70.076 293.51 70.076 214.015C70.076 134.52 134.52 70.076 214.015 70.076C293.51 70.076 357.954 134.52 357.954 214.015C357.954 293.51 293.51 357.954 214.015 357.954Z" fill="#03234B"/>
<path d="M214.058 92.6279C162.018 92.6469 117.518 125.616 100.315 171.76H101.382H102.455H109.912H110.981H112.063C113.311 168.752 114.69 165.799 116.202 162.916H133.354C132.359 165.827 131.453 168.776 130.636 171.76H131.685H132.714H139.912H140.946H141.988C142.87 168.752 143.846 165.8 144.916 162.916H174.293C173.836 165.811 173.432 168.772 173.054 171.76H174.062H175.071H181.995H183.004H184.013C184.408 168.773 184.831 165.815 185.313 162.916H242.915C243.397 165.815 243.821 168.773 244.216 171.76H245.225H246.233H253.167H254.176H255.184C254.805 168.772 254.4 165.811 253.943 162.916H283.327C284.397 165.8 285.374 168.753 286.257 171.76H287.299H288.333H295.503H296.532H297.582C296.765 168.776 295.86 165.826 294.865 162.916H312.035C313.548 165.8 314.927 168.753 316.175 171.76H317.257H318.326H325.614H326.715H327.754C310.584 125.619 266.1 92.6469 214.058 92.6279ZM137.619 151.993H122.767C132.388 137.878 145.101 126.187 159.874 117.828C150.989 127.18 143.37 138.857 137.619 151.993ZM176.251 151.993H149.558C159.749 130.843 174.613 115.433 191.769 108.177C185.338 118.354 180.005 133.395 176.251 151.993ZM187.385 151.993C193.639 122.974 204.319 103.566 214.102 103.566C223.894 103.566 234.582 122.974 240.84 151.993H187.385ZM251.979 151.993C248.221 133.397 242.882 118.357 236.446 108.178C253.61 115.437 268.481 130.845 278.678 151.993H251.979ZM290.597 151.993C284.844 138.852 277.221 127.17 268.332 117.815C283.117 126.175 295.839 137.871 305.467 151.993H290.597Z" fill="#03234B"/>
<path d="M325.613 256.103H318.575H317.49H316.403C312.721 265.236 308.968 270.907 307.921 272.404H292.174C294.3 267.173 296.021 261.582 297.414 256.103H296.396H295.354H288.406H287.266H286.229C283.845 264.61 281.449 270.784 280.685 272.679H252.607C253.478 269.106 254.283 262.934 254.982 256.103H253.973H252.966H246.219H245.211H244.203C244.003 257.645 243.79 259.221 243.558 260.836L243.534 261.003L243.555 261.11C243.34 262.547 243.113 263.96 242.879 265.367C242.496 267.806 242.082 270.263 241.648 272.679H186.358C186.121 271.137 185.587 267.594 184.954 262.976C184.602 260.729 184.282 258.427 183.978 256.104H182.969H181.961H175.033H174.023H173.018C173.722 261.709 174.554 267.173 175.527 272.405H147.852C145.558 267.212 143.587 261.751 141.94 256.104H140.884H139.855H132.673H131.646H130.599C132.116 261.678 133.936 267.12 136.07 272.405H120.354C117.111 267.213 114.323 261.752 111.995 256.104H110.893H109.83H102.358H101.319H100.223C117.372 302.506 161.984 335.236 214.015 335.236C266.08 335.236 310.583 302.263 327.753 256.104H326.712H325.613V256.103ZM128.127 283.319H141.033C146.302 293.63 152.622 302.668 159.875 310.276C147.773 303.411 136.918 294.203 128.127 283.319ZM153.35 283.319H177.818C181.417 298.56 186.212 311.117 191.781 319.931C176.797 313.57 163.282 300.711 153.35 283.319ZM214.102 324.54C205.217 324.54 195.443 308.406 189.066 283.319H239.156C232.777 308.406 222.995 324.54 214.102 324.54ZM236.335 320.093C241.267 312.375 245.495 301.986 248.94 289.116L248.973 289.286L250.056 284.799C250.202 284.193 250.319 283.694 250.404 283.32H274.885C261.024 308.213 243.121 317.376 236.335 320.093ZM269.204 309.759C278.364 300.006 285.651 286.293 287.18 283.32H300.225C291.117 295.817 277.4 304.998 269.204 309.759Z" fill="#03234B"/>
<path d="M128.203 187.756H129.203H132.841V178.932H130.919H129.904H128.868H109.387H108.314H107.28H105.978V183.137V186.929V187.756H106.828H113.625L120.633 212.188L120.92 213.188L121.207 214.188L123.193 221.11L123.48 222.11L123.767 223.11L125.93 230.651L127.67 236.715L130.068 245.076L131.174 248.932H137.989H139.003H140.044H141.272L148.528 223.11L148.809 222.11L149.09 221.11L151.036 214.188L151.317 213.188L151.598 212.188L155.488 198.344L159.324 212.188L159.602 213.188L159.879 214.188L161.797 221.11L162.074 222.11L162.351 223.11L169.507 248.932H172.194H173.198H174.205H179.997L180.817 245.868L181.551 243.124L182.286 240.378L186.942 222.983L187.209 221.984L187.477 220.983L189.296 214.188L189.563 213.188L189.831 212.188L196.37 187.756H204.801V178.932H183.154H182.147H181.141H177.743V187.756H180.336H181.346H182.341H186.272L181.439 205.797L180.387 209.725L179.344 213.619L174.507 231.677L172.611 224.875L171.561 221.11L169.631 214.188L169.352 213.188L169.073 212.188L159.801 178.932H151.174L142.138 212.188L141.866 213.188L141.594 214.188L139.713 221.11L139.441 222.11L139.17 223.11L136.985 231.149L136.762 231.972L135.662 228.004L134.301 223.093L127.735 199.401L126.995 196.734L126.276 194.139L124.507 187.756H127.176H128.203Z" fill="#03234B"/>
<path d="M213.82 213.188V214.188V220.983V221.984V222.983V240.108H206.172V248.932H230.878V240.108H223.329V222.983V221.984V220.983V214.188V213.188V212.188V196.972H206.172V205.794H213.82V212.188V213.188Z" fill="#03234B"/>
<path d="M223.329 178.932H213.82V190.501H223.329V178.932Z" fill="#03234B"/>
<path d="M245.877 213.188V214.188V220.984V221.984V222.984V240.108H238.329V248.932H245.056H246.061H247.068H253.645H254.652H255.661H261.564V240.108H256.381H255.388V239.91V225.263V223.148L255.508 223.274L256.451 224.263L257.394 225.252L271.564 240.108H265.877V248.932H288.206H289.238H290.262H292.935V240.108H292.03H291.016H289.997H284.112L267.528 222.984L266.56 221.984L266.073 221.481L266.599 220.983L273.777 214.187L274.833 213.187L275.889 212.187L282.642 205.793H289.897V196.971H264.7V205.107H271.367L263.874 212.187L262.815 213.187L261.757 214.187L255.387 220.206V197.138V182.841V178.931H255.006H253.999H247.086H246.081H245.074H238.33V187.755H245.877C245.877 187.762 245.878 187.768 245.878 187.775V212.187V213.188H245.877Z" fill="#03234B"/>
<path d="M314.503 178.932H304.994V190.501H314.503V178.932Z" fill="#03234B"/>
<path d="M304.994 213.188V214.188V221.11V222.11V223.11V240.108H300.732H299.732H298.707H297.346V247.444V248.932H298.069H299.077H318.996H320.059H321.113H322.052V245.804V241.946V240.108H321.465H314.503V223.11V222.11V221.11V214.188V213.188V212.188V196.972H302.255H301.241H300.247H297.346V205.794H300.918H301.917H302.926H304.994V212.188V213.188Z" fill="#03234B"/>
</svg>
